# xmcd
#
# Track frame offsets: 
#        150
#        32502
#        54743
#        79819
#        104278
#        130367
#        152275
#        174553
#        202589
#        222550
#        245304
#
# Disc length: 3467 seconds
#
# Revision: 0
# Processed by: cddbd v1.5.2PL0 Copyright (c) Steve Scherf et al.
# Submitted via: ExactAudioCopy v1.0b3
#
DISCID=8a0d890b
DTITLE=Hoai Nam, Huong Lan - Que Huong Xa Voi
DYEAR=1994
DGENRE=
TTITLE0=Em theo doan luu dan
TTITLE1=Huong Lan - Que huong xa voi
TTITLE2=Hoai Nam - Hue tinh yeu cua toi
TTITLE3=Huong toc ma non
TTITLE4=Hoai Nam - Tren dat que toi
TTITLE5=Hoai Nam - Ai kho vi ai
TTITLE6=Huong Lan - Mua he di qua
TTITLE7=Hoai Nam - Ta co nhung ngay
TTITLE8=Sao anh no danh quen
TTITLE9=Hoai Nam - Chuyen mot nguoi di
TTITLE10=hoa tau - Ngay buon
EXTD=
EXTT0=
EXTT1=
EXTT2=
EXTT3=
EXTT4=
EXTT5=
EXTT6=
EXTT7=
EXTT8=
EXTT9=
EXTT10=
PLAYORDER=
